<?xml version="1.0" encoding="UTF-8"?>
<svg width="823px" height="232px" viewBox="0 0 823 232" version="1.1" xmlns="http://www.w3.org/2000/svg" xmlns:xlink="http://www.w3.org/1999/xlink">
    <title>logo/landscape/no-name-white</title>
    <g id="logo/landscape/no-name-white" stroke="none" fill="none" fill-rule="evenodd" stroke-width="1">
        <g id="Group" transform="translate(46, 6)">
            <g>
                <path d="M102.400549,0.568162381 C106.428557,1.42434178 110.619541,3.84400769 119.001509,8.6833395 L171.983026,39.2722325 C180.364995,44.1115643 184.555979,46.5312302 187.311456,49.5914972 C189.749509,52.2992297 191.591221,55.4891688 192.71716,58.9544511 C193.98969,62.8708976 193.98969,67.7102294 193.98969,77.388893 L193.98969,138.566679 C193.98969,148.245343 193.98969,153.084674 192.71716,157.001121 C191.591221,160.466403 189.749509,163.656342 187.311456,166.364075 C184.555979,169.424342 180.364995,171.844008 171.983026,176.68334 L144.563758,192.512937 C141.897091,194.052448 138.563845,192.127942 138.563845,189.048785 L138.563845,160.272929 C138.563845,158.854191 139.318327,157.543735 140.542058,156.825893 C148.088652,152.399052 152.708796,149.245113 154.402491,147.364075 C156.840544,144.656342 158.682256,141.466403 159.808195,138.001121 C161.080725,134.084674 161.080725,129.245343 161.080725,119.566679 L161.080725,96.388893 C161.080725,86.7102294 161.080725,81.8708976 159.808195,77.9544511 C158.682256,74.4891688 156.840544,71.2992297 154.402491,68.5914972 C151.647014,65.5312302 147.456029,63.1115643 139.074061,58.2722325 L119.001509,46.6833395 C110.619541,41.8440077 106.428557,39.4243418 102.400549,38.5681624 C98.8365574,37.8106125 95.1531331,37.8106125 91.5891413,38.5681624 C87.5611339,39.4243418 83.3701496,41.8440077 74.988181,46.6833395 L54.9156295,58.2722325 C46.533661,63.1115643 42.3426767,65.5312302 39.5871999,68.5914972 C37.1491466,71.2992297 35.3074344,74.4891688 34.1814959,77.9544511 C32.9089653,81.8708976 32.9089653,86.7102294 32.9089653,96.388893 L32.9089653,119.566679 C32.9089653,129.245343 32.9089653,134.084674 34.1814959,138.001121 C35.3074344,141.466403 37.1491466,144.656342 39.5871999,147.364075 C41.2808942,149.245113 45.9007551,152.399052 53.4467826,156.825893 C54.6704555,157.543755 55.4248452,158.854232 55.4248452,160.272929 L55.4248452,189.048681 C55.4248452,192.127861 52.0915546,194.052365 49.4248879,192.512808 L22.0066642,176.68334 C13.6246956,171.844008 9.43371133,169.424342 6.67823454,166.364075 C4.24018123,163.656342 2.39846907,160.466403 1.27253058,157.001121 C0,153.084674 0,148.245343 0,138.566679 L0,77.388893 C0,67.7102294 0,62.8708976 1.27253058,58.9544511 C2.39846907,55.4891688 4.24018123,52.2992297 6.67823454,49.5914972 C9.43371133,46.5312302 13.6246956,44.1115643 22.0066642,39.2722325 L74.988181,8.6833395 C83.3701496,3.84400769 87.5611339,1.42434178 91.5891413,0.568162381 C95.1531331,-0.18938746 98.8365574,-0.18938746 102.400549,0.568162381 Z" id="Path" fill="#001B2E"></path>
                <path d="M107.951883,109.279696 L120.942604,116.728439 C125.152755,119.142496 127.257831,120.349525 128.642743,121.881198 C129.868085,123.23639 130.794012,124.834647 131.360144,126.571743 C132,128.535053 132,130.961627 132,135.814775 L132,186.185225 C132,191.038373 132,193.464947 131.360144,195.428257 C130.794012,197.165353 129.868085,198.76361 128.642743,200.118802 C127.257831,201.650475 125.152755,202.857504 120.942604,205.271561 L107.951883,212.720304 C103.777687,215.113745 101.690589,216.310465 99.687715,216.733698 C97.915473,217.108196 96.084527,217.108196 94.312285,216.733698 C92.3094106,216.310465 90.2223126,215.113745 86.0481168,212.720304 L73.0573961,205.271561 C68.8472447,202.857504 66.742169,201.650475 65.357257,200.118802 C64.1319155,198.76361 63.205988,197.165353 62.6398563,195.428257 C62,193.464947 62,191.038373 62,186.185225 L62,135.814775 C62,130.961627 62,128.535053 62.6398563,126.571743 C63.205988,124.834647 64.1319155,123.23639 65.357257,121.881198 C66.742169,120.349525 68.8472447,119.142496 73.0573961,116.728439 L86.0481168,109.279696 C90.2223126,106.886255 92.3094106,105.689535 94.312285,105.266302 C96.084527,104.891804 97.915473,104.891804 99.687715,105.266302 C101.690589,105.689535 103.777687,106.886255 107.951883,109.279696 Z" id="Polygon" fill="#D3B656"></path>
            </g>
            <path d="M302.01,48.56 C313.41,48.56 323.94,51.44 333.6,57.2 C343.26,62.96 350.91,70.79 356.55,80.69 C362.19,90.59 365.01,101.36 365.01,113 C365.01,124.64 362.19,135.41 356.55,145.31 C350.91,155.21 343.26,163.04 333.6,168.8 C323.94,174.56 313.41,177.44 302.01,177.44 C290.61,177.44 280.08,174.56 270.42,168.8 C260.76,163.04 253.11,155.21 247.47,145.31 C241.83,135.41 239.01,124.64 239.01,113 C239.01,104.24 240.66,95.87 243.96,87.89 C247.26,79.91 251.73,73.04 257.37,67.28 C263.01,61.52 269.73,56.96 277.53,53.6 C285.33,50.24 293.49,48.56 302.01,48.56 Z M307.23,172.76 C313.95,172.16 319.95,168.95 325.23,163.13 C330.51,157.31 334.41,149.66 336.93,140.18 C339.45,130.7 340.29,120.56 339.45,109.76 C338.01,93.2 333.12,79.4 324.78,68.36 C316.44,57.32 307.11,52.28 296.79,53.24 C290.07,53.84 284.07,57.05 278.79,62.87 C273.51,68.69 269.61,76.34 267.09,85.82 C264.57,95.3 263.73,105.44 264.57,116.24 C266.01,132.8 270.9,146.6 279.24,157.64 C287.58,168.68 296.91,173.72 307.23,172.76 Z M424.77,90.5 C430.53,90.5 435.63,91.49 440.07,93.47 C444.51,95.45 449.19,98.48 454.11,102.56 L442.05,126.5 C442.05,120.26 441.51,114.95 440.43,110.57 C439.35,106.19 437.85,102.95 435.93,100.85 C434.01,98.75 432.09,97.25 430.17,96.35 C428.25,95.45 426.21,95 424.05,95 C421.41,95 419.07,95.42 417.03,96.26 C414.99,97.1 413.34,98.27 412.08,99.77 C410.82,101.27 409.77,102.83 408.93,104.45 C408.09,106.07 407.49,107.87 407.13,109.85 C406.77,111.83 406.5,113.51 406.32,114.89 C406.14,116.27 406.05,117.62 406.05,118.94 L406.05,158 C406.05,160.16 406.23,162.11 406.59,163.85 C406.95,165.59 407.4,167 407.94,168.08 C408.48,169.16 409.05,170.09 409.65,170.87 C410.25,171.65 410.88,172.22 411.54,172.58 C412.2,172.94 412.8,173.21 413.34,173.39 C413.88,173.57 414.33,173.66 414.69,173.66 L415.05,173.66 L415.05,176 L373.11,176 L373.11,173.66 C373.35,173.66 373.68,173.63 374.1,173.57 C374.52,173.51 375.24,173.21 376.26,172.67 C377.28,172.13 378.18,171.38 378.96,170.42 C379.74,169.46 380.46,167.87 381.12,165.65 C381.78,163.43 382.11,160.88 382.11,158 L382.11,122 C382.11,119 381.81,116.42 381.21,114.26 C380.61,112.1 379.86,110.54 378.96,109.58 C378.06,108.62 377.16,107.87 376.26,107.33 C375.36,106.79 374.61,106.46 374.01,106.34 L373.11,106.16 L373.11,104 C380.19,104 386.37,102.68 391.65,100.04 C396.93,97.4 400.23,94.7 401.55,91.94 L406.05,91.94 L406.05,100.04 C410.01,93.68 416.25,90.5 424.77,90.5 Z M527.01,50 C528.33,52.76 531.63,55.46 536.91,58.1 C542.19,60.74 548.37,62.06 555.45,62.06 L555.45,64.22 C555.21,64.22 554.91,64.25 554.55,64.31 C554.19,64.37 553.47,64.7 552.39,65.3 C551.31,65.9 550.38,66.68 549.6,67.64 C548.82,68.6 548.1,70.16 547.44,72.32 C546.78,74.48 546.45,77.06 546.45,80.06 L546.45,158 C546.45,161 546.78,163.58 547.44,165.74 C548.1,167.9 548.85,169.46 549.69,170.42 C550.53,171.38 551.4,172.13 552.3,172.67 C553.2,173.21 553.95,173.54 554.55,173.66 L555.45,173.84 L555.45,176 L531.51,176 C531.39,176 531.18,175.97 530.88,175.91 C530.58,175.85 530.04,175.67 529.26,175.37 C528.48,175.07 527.73,174.65 527.01,174.11 C526.29,173.57 525.57,172.67 524.85,171.41 C524.13,170.15 523.59,168.68 523.23,167 C518.91,173.96 511.41,177.44 500.73,177.44 C488.73,177.44 478.86,173.57 471.12,165.83 C463.38,158.09 459.51,147.47 459.51,133.97 C459.51,120.47 463.38,109.85 471.12,102.11 C478.86,94.37 488.73,90.5 500.73,90.5 C510.81,90.5 518.07,93.62 522.51,99.86 L522.51,50 L527.01,50 Z M522.51,152.06 L522.51,116.06 C522.51,108.5 520.8,103.1 517.38,99.86 C513.96,96.62 509.91,95 505.23,95 C501.63,95 498.48,95.99 495.78,97.97 C493.08,99.95 490.98,102.77 489.48,106.43 C487.98,110.09 486.87,114.2 486.15,118.76 C485.43,123.32 485.07,128.42 485.07,134.06 C485.07,141.62 485.67,148.19 486.87,153.77 C488.07,159.35 490.23,163.94 493.35,167.54 C496.47,171.14 500.43,172.94 505.23,172.94 C509.91,172.94 513.96,171.32 517.38,168.08 C520.8,164.84 522.51,159.5 522.51,152.06 Z M614.13,90.5 C619.89,90.5 624.99,91.49 629.43,93.47 C633.87,95.45 638.55,98.48 643.47,102.56 L631.41,126.5 C631.41,120.26 630.87,114.95 629.79,110.57 C628.71,106.19 627.21,102.95 625.29,100.85 C623.37,98.75 621.45,97.25 619.53,96.35 C617.61,95.45 615.57,95 613.41,95 C610.77,95 608.43,95.42 606.39,96.26 C604.35,97.1 602.7,98.27 601.44,99.77 C600.18,101.27 599.13,102.83 598.29,104.45 C597.45,106.07 596.85,107.87 596.49,109.85 C596.13,111.83 595.86,113.51 595.68,114.89 C595.5,116.27 595.41,117.62 595.41,118.94 L595.41,158 C595.41,160.16 595.59,162.11 595.95,163.85 C596.31,165.59 596.76,167 597.3,168.08 C597.84,169.16 598.41,170.09 599.01,170.87 C599.61,171.65 600.24,172.22 600.9,172.58 C601.56,172.94 602.16,173.21 602.7,173.39 C603.24,173.57 603.69,173.66 604.05,173.66 L604.41,173.66 L604.41,176 L562.47,176 L562.47,173.66 C562.71,173.66 563.04,173.63 563.46,173.57 C563.88,173.51 564.6,173.21 565.62,172.67 C566.64,172.13 567.54,171.38 568.32,170.42 C569.1,169.46 569.82,167.87 570.48,165.65 C571.14,163.43 571.47,160.88 571.47,158 L571.47,122 C571.47,119 571.17,116.42 570.57,114.26 C569.97,112.1 569.22,110.54 568.32,109.58 C567.42,108.62 566.52,107.87 565.62,107.33 C564.72,106.79 563.97,106.46 563.37,106.34 L562.47,106.16 L562.47,104 C569.55,104 575.73,102.68 581.01,100.04 C586.29,97.4 589.59,94.7 590.91,91.94 L595.41,91.94 L595.41,100.04 C599.37,93.68 605.61,90.5 614.13,90.5 Z M701.25,170.06 C710.97,170.06 718.89,166.46 725.01,159.26 C725.61,158.54 725.91,158.12 725.91,158 L725.91,162.5 C724.95,163.94 723.72,165.38 722.22,166.82 C720.72,168.26 718.71,169.85 716.19,171.59 C713.67,173.33 710.52,174.74 706.74,175.82 C702.96,176.9 698.85,177.44 694.41,177.44 C681.45,177.44 670.47,173.21 661.47,164.75 C652.47,156.29 647.97,146.06 647.97,134.06 C647.97,132.98 648.03,131.96 648.15,131 C648.87,119.72 653.49,110.15 662.01,102.29 C670.53,94.43 680.37,90.5 691.53,90.5 C696.69,90.5 701.34,91.28 705.48,92.84 C709.62,94.4 713.22,96.74 716.28,99.86 C719.34,102.98 721.71,107.06 723.39,112.1 C725.07,117.14 725.91,122.96 725.91,129.56 C705.87,129.56 692.55,132.98 685.95,139.82 C681.87,144.02 679.95,150.08 680.19,158 C685.23,166.04 692.25,170.06 701.25,170.06 Z M676.23,149.54 C676.47,148.58 676.71,147.68 676.95,146.84 C678.03,142.88 679.95,139.46 682.71,136.58 C686.43,132.74 691.71,129.86 698.55,127.94 C699.63,127.7 700.77,127.46 701.97,127.22 C701.97,121.58 701.85,117.05 701.61,113.63 C701.37,110.21 700.86,106.94 700.08,103.82 C699.3,100.7 698.07,98.45 696.39,97.07 C694.71,95.69 692.55,95 689.91,95 C684.15,95 679.83,98.45 676.95,105.35 C674.07,112.25 672.81,120.8 673.17,131 C673.29,132.56 673.41,134.06 673.53,135.5 C674.01,140.66 674.91,145.34 676.23,149.54 Z" id="Combined-Shape" fill="#001B2E" fill-rule="nonzero"></path>
        </g>
    </g>
</svg>