<?xml version="1.0" encoding="UTF-8"?>
<svg width="400px" height="400px" viewBox="0 0 400 400" version="1.1" xmlns="http://www.w3.org/2000/svg" xmlns:xlink="http://www.w3.org/1999/xlink">
    <title>logo/square/name-dark</title>
    <g id="logo/square/name-dark" stroke="none" fill="none">
        <g id="Group" stroke-width="1" fill-rule="evenodd" transform="translate(103, 38)">
            <path d="M102.400549,0.568162381 C106.428557,1.42434178 110.619541,3.84400769 119.001509,8.6833395 L171.983026,39.2722325 C180.364995,44.1115643 184.555979,46.5312302 187.311456,49.5914972 C189.749509,52.2992297 191.591221,55.4891688 192.71716,58.9544511 C193.98969,62.8708976 193.98969,67.7102294 193.98969,77.388893 L193.98969,138.566679 C193.98969,148.245343 193.98969,153.084674 192.71716,157.001121 C191.591221,160.466403 189.749509,163.656342 187.311456,166.364075 C184.555979,169.424342 180.364995,171.844008 171.983026,176.68334 L144.563758,192.512937 C141.897091,194.052448 138.563845,192.127942 138.563845,189.048785 L138.563845,160.272929 C138.563845,158.854191 139.318327,157.543735 140.542058,156.825893 C148.088652,152.399052 152.708796,149.245113 154.402491,147.364075 C156.840544,144.656342 158.682256,141.466403 159.808195,138.001121 C161.080725,134.084674 161.080725,129.245343 161.080725,119.566679 L161.080725,96.388893 C161.080725,86.7102294 161.080725,81.8708976 159.808195,77.9544511 C158.682256,74.4891688 156.840544,71.2992297 154.402491,68.5914972 C151.647014,65.5312302 147.456029,63.1115643 139.074061,58.2722325 L119.001509,46.6833395 C110.619541,41.8440077 106.428557,39.4243418 102.400549,38.5681624 C98.8365574,37.8106125 95.1531331,37.8106125 91.5891413,38.5681624 C87.5611339,39.4243418 83.3701496,41.8440077 74.988181,46.6833395 L54.9156295,58.2722325 C46.533661,63.1115643 42.3426767,65.5312302 39.5871999,68.5914972 C37.1491466,71.2992297 35.3074344,74.4891688 34.1814959,77.9544511 C32.9089653,81.8708976 32.9089653,86.7102294 32.9089653,96.388893 L32.9089653,119.566679 C32.9089653,129.245343 32.9089653,134.084674 34.1814959,138.001121 C35.3074344,141.466403 37.1491466,144.656342 39.5871999,147.364075 C41.2808942,149.245113 45.9007551,152.399052 53.4467826,156.825893 C54.6704555,157.543755 55.4248452,158.854232 55.4248452,160.272929 L55.4248452,189.048681 C55.4248452,192.127861 52.0915546,194.052365 49.4248879,192.512808 L22.0066642,176.68334 C13.6246956,171.844008 9.43371133,169.424342 6.67823454,166.364075 C4.24018123,163.656342 2.39846907,160.466403 1.27253058,157.001121 C0,153.084674 0,148.245343 0,138.566679 L0,77.388893 C0,67.7102294 0,62.8708976 1.27253058,58.9544511 C2.39846907,55.4891688 4.24018123,52.2992297 6.67823454,49.5914972 C9.43371133,46.5312302 13.6246956,44.1115643 22.0066642,39.2722325 L74.988181,8.6833395 C83.3701496,3.84400769 87.5611339,1.42434178 91.5891413,0.568162381 C95.1531331,-0.18938746 98.8365574,-0.18938746 102.400549,0.568162381 Z" id="Path" fill="#C9C9B9"></path>
            <path d="M107.951883,109.279696 L120.942604,116.728439 C125.152755,119.142496 127.257831,120.349525 128.642743,121.881198 C129.868085,123.23639 130.794012,124.834647 131.360144,126.571743 C132,128.535053 132,130.961627 132,135.814775 L132,186.185225 C132,191.038373 132,193.464947 131.360144,195.428257 C130.794012,197.165353 129.868085,198.76361 128.642743,200.118802 C127.257831,201.650475 125.152755,202.857504 120.942604,205.271561 L107.951883,212.720304 C103.777687,215.113745 101.690589,216.310465 99.687715,216.733698 C97.915473,217.108196 96.084527,217.108196 94.312285,216.733698 C92.3094106,216.310465 90.2223126,215.113745 86.0481168,212.720304 L73.0573961,205.271561 C68.8472447,202.857504 66.742169,201.650475 65.357257,200.118802 C64.1319155,198.76361 63.205988,197.165353 62.6398563,195.428257 C62,193.464947 62,191.038373 62,186.185225 L62,135.814775 C62,130.961627 62,128.535053 62.6398563,126.571743 C63.205988,124.834647 64.1319155,123.23639 65.357257,121.881198 C66.742169,120.349525 68.8472447,119.142496 73.0573961,116.728439 L86.0481168,109.279696 C90.2223126,106.886255 92.3094106,105.689535 94.312285,105.266302 C96.084527,104.891804 97.915473,104.891804 99.687715,105.266302 C101.690589,105.689535 103.777687,106.886255 107.951883,109.279696 Z" id="Polygon" fill="#D3B656"></path>
        </g>
        <path d="M99.45,272.2 C105.783333,272.2 111.633333,273.8 117,277 C122.366667,280.2 126.616667,284.55 129.75,290.05 C132.883333,295.55 134.45,301.533333 134.45,308 C134.45,314.466667 132.883333,320.45 129.75,325.95 C126.616667,331.45 122.366667,335.8 117,339 C111.633333,342.2 105.783333,343.8 99.45,343.8 C93.1166667,343.8 87.2666667,342.2 81.9,339 C76.5333333,335.8 72.2833333,331.45 69.15,325.95 C66.0166667,320.45 64.45,314.466667 64.45,308 C64.45,303.133333 65.3666667,298.483333 67.2,294.05 C69.0333333,289.616667 71.5166667,285.8 74.65,282.6 C77.7833333,279.4 81.5166667,276.866667 85.85,275 C90.1833333,273.133333 94.7166667,272.2 99.45,272.2 Z M102.35,341.2 C106.083333,340.866667 109.416667,339.083333 112.35,335.85 C115.283333,332.616667 117.45,328.366667 118.85,323.1 C120.25,317.833333 120.716667,312.2 120.25,306.2 C119.45,297 116.733333,289.333333 112.1,283.2 C107.466667,277.066667 102.283333,274.266667 96.55,274.8 C92.8166667,275.133333 89.4833333,276.916667 86.55,280.15 C83.6166667,283.383333 81.45,287.633333 80.05,292.9 C78.65,298.166667 78.1833333,303.8 78.65,309.8 C79.45,319 82.1666667,326.666667 86.8,332.8 C91.4333333,338.933333 96.6166667,341.733333 102.35,341.2 Z M167.65,295.5 C170.85,295.5 173.683333,296.05 176.15,297.15 C178.616667,298.25 181.216667,299.933333 183.95,302.2 L177.25,315.5 C177.25,312.033333 176.95,309.083333 176.35,306.65 C175.75,304.216667 174.916667,302.416667 173.85,301.25 C172.783333,300.083333 171.716667,299.25 170.65,298.75 C169.583333,298.25 168.45,298 167.25,298 C165.783333,298 164.483333,298.233333 163.35,298.7 C162.216667,299.166667 161.3,299.816667 160.6,300.65 C159.9,301.483333 159.316667,302.35 158.85,303.25 C158.383333,304.15 158.05,305.15 157.85,306.25 C157.65,307.35 157.5,308.283333 157.4,309.05 C157.3,309.816667 157.25,310.566667 157.25,311.3 L157.25,333 C157.25,334.2 157.35,335.283333 157.55,336.25 C157.75,337.216667 158,338 158.3,338.6 C158.6,339.2 158.916667,339.716667 159.25,340.15 C159.583333,340.583333 159.933333,340.9 160.3,341.1 C160.666667,341.3 161,341.45 161.3,341.55 C161.6,341.65 161.85,341.7 162.05,341.7 L162.25,341.7 L162.25,343 L138.95,343 L138.95,341.7 C139.083333,341.7 139.266667,341.683333 139.5,341.65 C139.733333,341.616667 140.133333,341.45 140.7,341.15 C141.266667,340.85 141.766667,340.433333 142.2,339.9 C142.633333,339.366667 143.033333,338.483333 143.4,337.25 C143.766667,336.016667 143.95,334.6 143.95,333 L143.95,313 C143.95,311.333333 143.783333,309.9 143.45,308.7 C143.116667,307.5 142.7,306.633333 142.2,306.1 C141.7,305.566667 141.2,305.15 140.7,304.85 C140.2,304.55 139.783333,304.366667 139.45,304.3 L138.95,304.2 L138.95,303 C142.883333,303 146.316667,302.266667 149.25,300.8 C152.183333,299.333333 154.016667,297.833333 154.75,296.3 L157.25,296.3 L157.25,300.8 C159.45,297.266667 162.916667,295.5 167.65,295.5 Z M224.45,273 C225.183333,274.533333 227.016667,276.033333 229.95,277.5 C232.883333,278.966667 236.316667,279.7 240.25,279.7 L240.25,280.9 C240.116667,280.9 239.95,280.916667 239.75,280.95 C239.55,280.983333 239.15,281.166667 238.55,281.5 C237.95,281.833333 237.433333,282.266667 237,282.8 C236.566667,283.333333 236.166667,284.2 235.8,285.4 C235.433333,286.6 235.25,288.033333 235.25,289.7 L235.25,333 C235.25,334.666667 235.433333,336.1 235.8,337.3 C236.166667,338.5 236.583333,339.366667 237.05,339.9 C237.516667,340.433333 238,340.85 238.5,341.15 C239,341.45 239.416667,341.633333 239.75,341.7 L240.25,341.8 L240.25,343 L226.95,343 C226.883333,343 226.766667,342.983333 226.6,342.95 C226.433333,342.916667 226.133333,342.816667 225.7,342.65 C225.266667,342.483333 224.85,342.25 224.45,341.95 C224.05,341.65 223.65,341.15 223.25,340.45 C222.85,339.75 222.55,338.933333 222.35,338 C219.95,341.866667 215.783333,343.8 209.85,343.8 C203.183333,343.8 197.7,341.65 193.4,337.35 C189.1,333.05 186.95,327.15 186.95,319.65 C186.95,312.15 189.1,306.25 193.4,301.95 C197.7,297.65 203.183333,295.5 209.85,295.5 C215.45,295.5 219.483333,297.233333 221.95,300.7 L221.95,273 L224.45,273 Z M221.95,329.7 L221.95,309.7 C221.95,305.5 221,302.5 219.1,300.7 C217.2,298.9 214.95,298 212.35,298 C210.35,298 208.6,298.55 207.1,299.65 C205.6,300.75 204.433333,302.316667 203.6,304.35 C202.766667,306.383333 202.15,308.666667 201.75,311.2 C201.35,313.733333 201.15,316.566667 201.15,319.7 C201.15,323.9 201.483333,327.55 202.15,330.65 C202.816667,333.75 204.016667,336.3 205.75,338.3 C207.483333,340.3 209.683333,341.3 212.35,341.3 C214.95,341.3 217.2,340.4 219.1,338.6 C221,336.8 221.95,333.833333 221.95,329.7 Z M272.85,295.5 C276.05,295.5 278.883333,296.05 281.35,297.15 C283.816667,298.25 286.416667,299.933333 289.15,302.2 L282.45,315.5 C282.45,312.033333 282.15,309.083333 281.55,306.65 C280.95,304.216667 280.116667,302.416667 279.05,301.25 C277.983333,300.083333 276.916667,299.25 275.85,298.75 C274.783333,298.25 273.65,298 272.45,298 C270.983333,298 269.683333,298.233333 268.55,298.7 C267.416667,299.166667 266.5,299.816667 265.8,300.65 C265.1,301.483333 264.516667,302.35 264.05,303.25 C263.583333,304.15 263.25,305.15 263.05,306.25 C262.85,307.35 262.7,308.283333 262.6,309.05 C262.5,309.816667 262.45,310.566667 262.45,311.3 L262.45,333 C262.45,334.2 262.55,335.283333 262.75,336.25 C262.95,337.216667 263.2,338 263.5,338.6 C263.8,339.2 264.116667,339.716667 264.45,340.15 C264.783333,340.583333 265.133333,340.9 265.5,341.1 C265.866667,341.3 266.2,341.45 266.5,341.55 C266.8,341.65 267.05,341.7 267.25,341.7 L267.45,341.7 L267.45,343 L244.15,343 L244.15,341.7 C244.283333,341.7 244.466667,341.683333 244.7,341.65 C244.933333,341.616667 245.333333,341.45 245.9,341.15 C246.466667,340.85 246.966667,340.433333 247.4,339.9 C247.833333,339.366667 248.233333,338.483333 248.6,337.25 C248.966667,336.016667 249.15,334.6 249.15,333 L249.15,313 C249.15,311.333333 248.983333,309.9 248.65,308.7 C248.316667,307.5 247.9,306.633333 247.4,306.1 C246.9,305.566667 246.4,305.15 245.9,304.85 C245.4,304.55 244.983333,304.366667 244.65,304.3 L244.15,304.2 L244.15,303 C248.083333,303 251.516667,302.266667 254.45,300.8 C257.383333,299.333333 259.216667,297.833333 259.95,296.3 L262.45,296.3 L262.45,300.8 C264.65,297.266667 268.116667,295.5 272.85,295.5 Z M321.25,339.7 C326.65,339.7 331.05,337.7 334.45,333.7 C334.783333,333.3 334.95,333.066667 334.95,333 L334.95,335.5 C334.416667,336.3 333.733333,337.1 332.9,337.9 C332.066667,338.7 330.95,339.583333 329.55,340.55 C328.15,341.516667 326.4,342.3 324.3,342.9 C322.2,343.5 319.916667,343.8 317.45,343.8 C310.25,343.8 304.15,341.45 299.15,336.75 C294.15,332.05 291.65,326.366667 291.65,319.7 C291.65,319.1 291.683333,318.533333 291.75,318 C292.15,311.733333 294.716667,306.416667 299.45,302.05 C304.183333,297.683333 309.65,295.5 315.85,295.5 C318.716667,295.5 321.3,295.933333 323.6,296.8 C325.9,297.666667 327.9,298.966667 329.6,300.7 C331.3,302.433333 332.616667,304.7 333.55,307.5 C334.483333,310.3 334.95,313.533333 334.95,317.2 C323.816667,317.2 316.416667,319.1 312.75,322.9 C310.483333,325.233333 309.416667,328.6 309.55,333 C312.35,337.466667 316.25,339.7 321.25,339.7 Z M307.35,328.3 C307.483333,327.766667 307.616667,327.266667 307.75,326.8 C308.35,324.6 309.416667,322.7 310.95,321.1 C313.016667,318.966667 315.95,317.366667 319.75,316.3 C320.35,316.166667 320.983333,316.033333 321.65,315.9 C321.65,312.766667 321.583333,310.25 321.45,308.35 C321.316667,306.45 321.033333,304.633333 320.6,302.9 C320.166667,301.166667 319.483333,299.916667 318.55,299.15 C317.616667,298.383333 316.416667,298 314.95,298 C311.75,298 309.35,299.916667 307.75,303.75 C306.15,307.583333 305.45,312.333333 305.65,318 C305.716667,318.866667 305.783333,319.7 305.85,320.5 C306.116667,323.366667 306.616667,325.966667 307.35,328.3 Z" id="Combined-Shape" fill="#C9C9B9" fill-rule="nonzero"></path>
    </g>
</svg>