<?xml version="1.0" encoding="UTF-8"?>
<svg width="263px" height="263px" viewBox="0 0 263 263" version="1.1" xmlns="http://www.w3.org/2000/svg" xmlns:xlink="http://www.w3.org/1999/xlink">
    <title>logo/square/no-name-white</title>
    <g id="logo/square/no-name-white" stroke="none" fill="none" fill-rule="evenodd" stroke-width="1">
        <g id="Group" transform="translate(35, 24)">
            <path d="M102.400549,0.568162381 C106.428557,1.42434178 110.619541,3.84400769 119.001509,8.6833395 L171.983026,39.2722325 C180.364995,44.1115643 184.555979,46.5312302 187.311456,49.5914972 C189.749509,52.2992297 191.591221,55.4891688 192.71716,58.9544511 C193.98969,62.8708976 193.98969,67.7102294 193.98969,77.388893 L193.98969,138.566679 C193.98969,148.245343 193.98969,153.084674 192.71716,157.001121 C191.591221,160.466403 189.749509,163.656342 187.311456,166.364075 C184.555979,169.424342 180.364995,171.844008 171.983026,176.68334 L144.563758,192.512937 C141.897091,194.052448 138.563845,192.127942 138.563845,189.048785 L138.563845,160.272929 C138.563845,158.854191 139.318327,157.543735 140.542058,156.825893 C148.088652,152.399052 152.708796,149.245113 154.402491,147.364075 C156.840544,144.656342 158.682256,141.466403 159.808195,138.001121 C161.080725,134.084674 161.080725,129.245343 161.080725,119.566679 L161.080725,96.388893 C161.080725,86.7102294 161.080725,81.8708976 159.808195,77.9544511 C158.682256,74.4891688 156.840544,71.2992297 154.402491,68.5914972 C151.647014,65.5312302 147.456029,63.1115643 139.074061,58.2722325 L119.001509,46.6833395 C110.619541,41.8440077 106.428557,39.4243418 102.400549,38.5681624 C98.8365574,37.8106125 95.1531331,37.8106125 91.5891413,38.5681624 C87.5611339,39.4243418 83.3701496,41.8440077 74.988181,46.6833395 L54.9156295,58.2722325 C46.533661,63.1115643 42.3426767,65.5312302 39.5871999,68.5914972 C37.1491466,71.2992297 35.3074344,74.4891688 34.1814959,77.9544511 C32.9089653,81.8708976 32.9089653,86.7102294 32.9089653,96.388893 L32.9089653,119.566679 C32.9089653,129.245343 32.9089653,134.084674 34.1814959,138.001121 C35.3074344,141.466403 37.1491466,144.656342 39.5871999,147.364075 C41.2808942,149.245113 45.9007551,152.399052 53.4467826,156.825893 C54.6704555,157.543755 55.4248452,158.854232 55.4248452,160.272929 L55.4248452,189.048681 C55.4248452,192.127861 52.0915546,194.052365 49.4248879,192.512808 L22.0066642,176.68334 C13.6246956,171.844008 9.43371133,169.424342 6.67823454,166.364075 C4.24018123,163.656342 2.39846907,160.466403 1.27253058,157.001121 C-1.70530257e-13,153.084674 -1.70530257e-13,148.245343 -1.70530257e-13,138.566679 L-1.70530257e-13,77.388893 C-1.70530257e-13,67.7102294 -1.70530257e-13,62.8708976 1.27253058,58.9544511 C2.39846907,55.4891688 4.24018123,52.2992297 6.67823454,49.5914972 C9.43371133,46.5312302 13.6246956,44.1115643 22.0066642,39.2722325 L74.988181,8.6833395 C83.3701496,3.84400769 87.5611339,1.42434178 91.5891413,0.568162381 C95.1531331,-0.18938746 98.8365574,-0.18938746 102.400549,0.568162381 Z" id="Path" fill="#001B2E"></path>
            <path d="M107.951883,105.256482 L120.942604,112.705225 C125.152755,115.119282 127.257831,116.326311 128.642743,117.857984 C129.868085,119.213176 130.794012,120.811433 131.360144,122.548529 C132,124.511839 132,126.938413 132,131.791561 L132,182.162011 C132,187.015159 132,189.441733 131.360144,191.405043 C130.794012,193.142139 129.868085,194.740396 128.642743,196.095588 C127.257831,197.627261 125.152755,198.83429 120.942604,201.248347 L107.951883,208.69709 C103.777687,211.090531 101.690589,212.287251 99.687715,212.710484 C97.915473,213.084982 96.084527,213.084982 94.312285,212.710484 C92.3094106,212.287251 90.2223126,211.090531 86.0481168,208.69709 L73.0573961,201.248347 C68.8472447,198.83429 66.742169,197.627261 65.357257,196.095588 C64.1319155,194.740396 63.205988,193.142139 62.6398563,191.405043 C62,189.441733 62,187.015159 62,182.162011 L62,131.791561 C62,126.938413 62,124.511839 62.6398563,122.548529 C63.205988,120.811433 64.1319155,119.213176 65.357257,117.857984 C66.742169,116.326311 68.8472447,115.119282 73.0573961,112.705225 L86.0481168,105.256482 C90.2223126,102.863041 92.3094106,101.666321 94.312285,101.243088 C96.084527,100.86859 97.915473,100.86859 99.687715,101.243088 C101.690589,101.666321 103.777687,102.863041 107.951883,105.256482 Z" id="Polygon" fill="#D3B656"></path>
        </g>
    </g>
</svg>